<?xml version="1.0" encoding="UTF-8"?>
<svg id="Layer_2" xmlns="http://www.w3.org/2000/svg" viewBox="0 0 540.84 215.57">
  <defs>
    <style>
      .cls-1 {
        fill: #c42428;
      }

      .cls-2 {
        fill: #293e79;
      }
    </style>
  </defs>
  <g id="Layer_1-2" data-name="Layer_1">
    <g>
      <path class="cls-2" d="M168.83,215.57v-15.05h15.41v2.56h-11.9v3.36h6.95v2.56h-6.95v3.73h12.05v2.83h-15.55Z"/>
      <path class="cls-2" d="M187.24,215.57l5.92-6.41-6.02-6.07h3.85l3.99,4.24,3.79-4.24h3.34l-5.45,5.74,6.73,6.75h-3.95l-4.57-4.84-4.22,4.84h-3.43Z"/>
      <path class="cls-2" d="M215.58,205.31h-7.83v7.9h7.83v-2.68l2.91.6v1.48c0,1.14-.21,1.92-.64,2.33s-1.25.62-2.45.62h-7.45c-1.21,0-2.03-.21-2.46-.62-.43-.41-.64-1.19-.64-2.33v-6.58c0-1.13.21-1.91.64-2.33.43-.42,1.24-.63,2.46-.63h7.45c1.2,0,2.02.21,2.45.63.43.42.64,1.19.64,2.33v1.18l-2.91.46v-2.36Z"/>
      <path class="cls-2" d="M223.61,215.57v-12.49h12.78v2.13h-9.88v2.79h5.76v2.13h-5.76v3.1h9.99v2.35h-12.9Z"/>
      <path class="cls-2" d="M241,215.57v-12.49h2.91v10.14h9.37v2.35h-12.27Z"/>
      <path class="cls-2" d="M256.66,215.57v-12.49h2.91v10.14h9.37v2.35h-12.27Z"/>
      <path class="cls-2" d="M272.31,215.57v-12.49h12.78v2.13h-9.88v2.79h5.76v2.13h-5.76v3.1h9.99v2.35h-12.9Z"/>
      <path class="cls-2" d="M289.68,215.57v-12.49h1.98l8.79,7.36c.3.24.56.47.79.69.23.22.44.44.63.67-.05-.7-.08-1.2-.09-1.49s-.02-.52-.02-.67v-6.56h2.61v12.49h-1.98l-9.17-7.71c-.22-.2-.41-.37-.58-.53-.17-.16-.32-.32-.46-.48.04.39.07.75.09,1.09.02.34.03.64.03.89v6.75h-2.61Z"/>
      <path class="cls-2" d="M320.34,205.31h-7.83v7.9h7.83v-2.68l2.91.6v1.48c0,1.14-.21,1.92-.64,2.33s-1.25.62-2.45.62h-7.45c-1.21,0-2.03-.21-2.46-.62s-.64-1.19-.64-2.33v-6.58c0-1.13.21-1.91.64-2.33.43-.42,1.24-.63,2.46-.63h7.45c1.2,0,2.02.21,2.45.63.43.42.64,1.19.64,2.33v1.18l-2.91.46v-2.36Z"/>
      <path class="cls-2" d="M328.37,215.57v-12.49h12.78v2.13h-9.88v2.79h5.76v2.13h-5.76v3.1h9.99v2.35h-12.9Z"/>
      <path class="cls-2" d="M354.91,215.57v-15.05h15.41v2.56h-11.9v3.36h6.95v2.56h-6.95v3.73h12.05v2.83h-15.55Z"/>
      <path class="cls-2" d="M373.32,215.57l5.92-6.41-6.02-6.07h3.85l3.99,4.24,3.79-4.24h3.34l-5.45,5.74,6.73,6.75h-3.95l-4.57-4.84-4.22,4.84h-3.43Z"/>
      <path class="cls-2" d="M391.72,215.57v-12.49h12.78v2.13h-9.88v2.79h5.76v2.13h-5.76v3.1h9.99v2.35h-12.9Z"/>
      <path class="cls-2" d="M409.09,215.57v-12.49h2.35l5.88,7.55,5.75-7.55h2.33v12.49h-2.69v-7.71c0-.15,0-.34.03-.57.02-.23.05-.48.08-.77-.16.32-.29.59-.41.8-.12.21-.22.38-.32.51l-4.69,6.24h-.58l-4.7-6.26c-.17-.24-.32-.46-.44-.67-.12-.21-.22-.41-.3-.61.02.26.04.5.05.71.01.21.02.42.02.61v7.71h-2.35Z"/>
      <path class="cls-2" d="M430.64,215.57v-12.49h10.68c.99,0,1.71.19,2.16.57.44.38.67,1,.67,1.85v2.79c0,.84-.22,1.45-.67,1.84-.45.38-1.16.57-2.16.57h-7.82v4.87h-2.86ZM440.03,205.24h-6.53v3.31h6.53c.5,0,.85-.07,1.03-.22.19-.15.28-.4.28-.77v-1.33c0-.36-.09-.62-.28-.76-.19-.15-.53-.22-1.03-.22Z"/>
      <path class="cls-2" d="M447.75,215.57v-12.49h2.91v10.14h9.37v2.35h-12.27Z"/>
      <path class="cls-2" d="M463.41,215.57v-12.49h2.91v12.49h-2.91Z"/>
      <path class="cls-2" d="M471.82,215.57v-12.49h12.63v2.19h-9.72v3.28h5.26v2.28h-5.26v4.74h-2.91Z"/>
      <path class="cls-2" d="M487.18,215.57v-12.49h2.91v12.49h-2.91Z"/>
      <path class="cls-2" d="M495.6,215.57v-12.49h12.78v2.13h-9.88v2.79h5.76v2.13h-5.76v3.1h9.99v2.35h-12.9Z"/>
      <path class="cls-2" d="M512.99,215.57v-12.49h8.03c2.29,0,4.05.54,5.29,1.61,1.23,1.07,1.85,2.59,1.85,4.56,0,1.17-.24,2.22-.72,3.15-.48.93-1.16,1.67-2.03,2.2-.54.34-1.22.58-2.03.74-.81.15-1.84.23-3.1.23h-7.29ZM515.9,213.21h3.76c2,0,3.42-.31,4.25-.93.83-.62,1.25-1.65,1.25-3.08,0-1.28-.35-2.24-1.04-2.9s-1.72-.99-3.07-.99h-5.15v7.9Z"/>
    </g>
    <path class="cls-1" d="M110.42,0c-.15.45.2.76.36,1.1,12.53,26.94,25.08,53.88,37.62,80.82.23.5.5.98.74,1.47.23.79.56,1.53,1.01,2.23.15.37.28.75.45,1.11,4.55,9.73,9.1,19.47,13.67,29.19.91,1.94,1.7,3.94,2.8,5.79-.55.41-1.22.41-1.85.52-8.04,1.38-16.13,2.43-24.26,3.08-.48.04-.97.32-1.46,0-.16-.42-.31-.85-.49-1.26-3.74-8.76-7.47-17.51-11.22-26.26-2.07-4.84-4.17-9.66-6.25-14.49-.13-.53-.34-1.02-.64-1.47-.09-.29-.16-.58-.28-.85-3.42-8.06-6.84-16.11-10.27-24.16-.09-.2-.15-.45-.46-.53-.22.5-.45,1-.67,1.5-1.98,4.65-3.96,9.29-5.93,13.95-1.42,3.36-2.82,6.74-4.22,10.1-.19.29-.41.56-.44.93-.18.35-.39.69-.55,1.06-4.96,11.66-9.92,23.32-14.86,34.99-1.11,2.62-2.35,5.2-3.27,7.9-.49.18-.99.11-1.49.09-2.2-.1-4.4-.21-6.61-.32-5.76-.28-11.5-.78-17.23-1.34-.87-.09-1.81.04-2.63-.45,2.58-5.48,5.17-10.96,7.73-16.45C76.32,72.66,92.91,37.07,109.5,1.48c.23-.48.59-.92.62-1.48h.3Z"/>
    <path class="cls-1" d="M540.84,128.86c-3.56,2.26-6.75,5.01-9.96,7.72-7.44,6.28-14.89,12.55-22.34,18.82-.08.06-.14.14-.23.19-.74.43-.86.92-.4,1.71.75,1.3,1.35,2.68,2.02,4.03,3.31,6.64,6.64,13.27,9.93,19.91,1.39,2.8,3,5.43,5.14,7.67-.21.49-.56.32-.82.32-9.09,0-18.18.01-27.27,0-1.25,0-1.26-.01-1.22-1.32.05-1.68-.38-3.27-.85-4.86-1.2-4.06-3.35-7.71-5.04-11.5-.57-.12-.79.28-1.08.53-4.32,3.75-8.64,7.5-12.96,11.26-1.71,1.49-3.24,3.15-4.29,5.19-.26.5-.58.73-1.16.72-6.18-.02-12.35-.01-18.53-.01-.12,0-.19-.03-.23-.18.09-.38.49-.42.77-.57,4.6-2.59,8.91-5.61,12.93-9.04,6.38-5.44,12.77-10.86,19.16-16.28,1.11-.94,1.12-.95.47-2.32-3.05-6.48-5.93-13.05-9.13-19.45-2.18-4.35-4.53-8.6-7.39-12.56,1.07-.32,26.54-.44,29.53-.14-.74,3.08.23,5.92,1.35,8.7,1.27,3.15,2.69,6.25,4.02,9.32.6.14.81-.28,1.09-.52,4.92-4.13,9.83-8.27,14.75-12.4,1.44-1.21,2.71-2.56,3.58-4.22.41-.79.89-1.02,1.74-1.02,5.47.03,10.95,0,16.42,0v.3Z"/>
    <path class="cls-1" d="M300.06,154.93c.13-.8.5-1.34.76-1.91,1.13-2.46,2.3-4.9,3.39-7.37.34-.76.77-1.01,1.59-1.01,4.17.04,8.33.02,12.5.02,8.74,0,17.47,0,26.21,0,1.46,0,2.9.12,4.33.44,4.59,1.01,8.11,5.02,8.48,9.72.19,2.43-.24,4.8-.84,7.14-1.49,5.82-3.03,11.63-4.52,17.45-.86,3.35-1.43,5.27-.63,9.63-.31.36-.74.2-1.12.2-6.33.01-12.65,0-18.98,0-1.46,0-1.47,0-1.7-1.44-.12-.74-.2-1.49-.29-2.23-.24-.13-.36.04-.48.18-1.95,2.26-4.48,3.42-7.41,3.44-5.12.05-10.24.2-15.36-.1-1.66-.1-3.26-.53-4.83-1.06-5.26-1.75-7.55-7.59-6.7-11.47.7-3.18,1.35-6.37,2.54-9.41.33-.84.76-1.63,1.2-2.42,1.22-2.21,3.02-3.66,5.47-4.38,2.44-.71,4.91-.99,7.43-1,6.58-.02,13.16,0,19.73-.01.8,0,1.61,0,2.41-.1,1.44-.17,2.21-1.12,2.39-2.82.14-1.29-.37-2.07-1.75-2.61-1.04-.42-2.15-.5-3.25-.5-6.98-.01-13.96-.05-20.94.01-3.24.03-6.48.29-9.65,1.6ZM332.87,168.03c-4.03,0-7.89-.01-11.75,0-1.76,0-2.94.86-3.4,2.6-.57,2.13-1.21,4.24-1.71,6.39-.38,1.62.32,2.71,1.91,3.23.47.16.98.28,1.47.29,2.76.05,5.52.15,8.28-.09,1.1-.1,1.75-.64,2.19-1.56.19-.41.4-.82.52-1.25.83-3.15,1.64-6.3,2.5-9.62Z"/>
    <path class="cls-1" d="M388.69,189.24c1.71-2.89,3.06-5.58,3.87-8.48,1.25-4.49,2.41-9,3.6-13.5,1.18-4.5,2.36-9.01,3.52-13.52.71-2.74,1.18-5.5.41-8.31-.13-.49-.04-.78.53-.77.2,0,.4,0,.6,0,6.88,0,13.76,0,20.64,0,.29,0,.6-.08.92.18.05.89-.51,1.72-.54,2.66.58,0,.68-.46.9-.75.95-1.24,2.21-1.85,3.75-1.94.3-.02.6-.06.9-.07,5.87-.11,11.75-.19,17.62.04,1.21.05,2.38.36,3.53.73,4.56,1.47,7.42,5.33,7.53,10.15.07,2.73-.42,5.39-1.1,8.02-1.47,5.67-2.98,11.33-4.45,17.01-.71,2.74-1.04,5.51-.25,8.29-1.07.33-23.31.42-25.34.12,0-.09-.05-.2,0-.27,2.2-3.69,3.64-7.67,4.67-11.84,1.57-6.37,3.26-12.71,4.89-19.07.15-.58.29-1.17.39-1.76.21-1.3-.52-2.39-1.83-2.67-.58-.12-1.2-.15-1.79-.15-2.46-.02-4.91-.15-7.37.14-1.57.19-2.56.99-3.15,2.42-.66,1.58-.98,3.26-1.42,4.9-1.7,6.39-3.36,12.79-5.03,19.18-.73,2.79-1.19,5.59-.51,8.46.15.64-.11.81-.68.79-.35-.02-.7,0-1.05,0-7.28,0-14.56,0-21.84,0h-1.92Z"/>
    <path class="cls-1" d="M198.79,190.12c-.51.31-.97.18-1.4.18-9.54,0-19.08-.02-28.62.04-1.15,0-1.62-.4-2.05-1.41-7.56-17.79-15.16-35.56-22.75-53.34-.21-.49-.54-.96-.5-1.66,2.13-.18,4.28-.35,6.42-.54,6.05-.52,12.08-1.15,18.1-1.99.55-.08,1.1-.12,1.64-.2q1.65-.24,2.39,1.32c8.67,18.61,17.34,37.23,26.01,55.85.27.58.51,1.17.76,1.75Z"/>
    <path class="cls-1" d="M76.55,134.05c.05.62-.29,1.08-.5,1.57-7.56,17.79-15.14,35.57-22.69,53.36-.39.92-.81,1.37-1.93,1.36-9.54-.06-19.07-.03-28.61-.03-.4,0-.79,0-1.18,0-.09-.58.22-.94.41-1.33,8.76-18.84,17.53-37.69,26.3-56.53.61-1.3.61-1.29,2.02-1.1,6.26.87,12.54,1.54,18.84,2.06,2.45.2,4.89.42,7.35.64Z"/>
    <path class="cls-1" d="M291.55,179.41c.23.28.07.58,0,.86-.67,2.67-1.39,5.33-2.02,8.01-.17.74-.47.98-1.21.97-8.44-.1-16.88.18-25.31-.19-1.66-.07-3.31-.29-4.91-.71-4.34-1.11-6.47-4.27-7.52-8.35-.42-1.64-.18-3.3.23-4.91,1.75-6.89,3.52-13.78,5.28-20.68.09-.34.27-.66.07-1.13h-8.93c.57-2.21,1.09-4.29,1.63-6.36.6-2.28.6-2.27,2.91-2.27,1.91,0,3.82,0,5.73,0,1.18,0,1.19-.02,1.49-1.19.54-2.09,1.06-4.17,1.59-6.26.15-.62.36-1.04,1.16-1.09,6.77-.37,13.53-.8,20.3-1.21.3-.02.59,0,1.04,0-.64,2.5-1.25,4.9-1.87,7.3-.09.34-.17.68-.26,1.02-.36,1.43-.36,1.43,1.18,1.43,4.82,0,9.64,0,14.47,0,.48,0,1-.15,1.55.22-.68,2.58-1.38,5.18-2.03,7.79-.13.5-.39.64-.84.63-1.05,0-2.11,0-3.16,0-4.17,0-8.34,0-12.51,0-1.3,0-1.31,0-1.61,1.19-1.82,7.03-3.64,14.07-5.44,21.1-.59,2.3.13,3.62,2.35,4.44.81.3,1.66.46,2.5.48,3.86.1,7.73.29,11.56-.49.88-.18,1.7-.61,2.62-.59l-.02-.03Z"/>
    <path class="cls-1" d="M242.42,179.41c.26.34.06.69-.02,1-.66,2.62-1.38,5.23-1.99,7.87-.17.74-.47.98-1.21.97-8.49-.11-16.97.2-25.46-.2-1.61-.07-3.21-.29-4.76-.69-4.33-1.11-6.49-4.26-7.53-8.35-.51-2.01-.05-3.98.45-5.93,1.7-6.6,3.39-13.19,5.09-19.79.07-.29.21-.57.03-1h-8.96c.74-2.8,1.45-5.44,2.13-8.1.16-.64.63-.54,1.07-.54,2.06,0,4.12,0,6.18,0,.35,0,.71-.04,1.05,0,.82.11,1.14-.32,1.32-1.05.52-2.14,1.08-4.27,1.62-6.41.15-.61.34-1.04,1.15-1.09,6.82-.38,13.63-.81,20.45-1.22.25-.01.49,0,.89,0-.83,3.26-1.64,6.43-2.5,9.78h17.6c-.55,2.16-1.02,4.15-1.57,6.11-.23.8-.14,1.86-.8,2.35-.66.49-1.65.16-2.5.17-4.62.02-9.24.03-13.86-.01-.85,0-1.24.2-1.45,1.06-1.8,7.14-3.64,14.27-5.5,21.39-.3,1.14-.31,2.18.51,3.1.51.57,1.17.92,1.88,1.2.81.32,1.66.46,2.5.48,3.81.09,7.63.28,11.41-.46.93-.18,1.8-.64,2.77-.62l-.02-.03Z"/>
    <path class="cls-2" d="M139.51,125.31c.49.31.98.03,1.46,0,8.13-.66,16.22-1.7,24.26-3.08.63-.11,1.3-.11,1.85-.52.55-.07,1.1-.11,1.64-.22,6.78-1.35,13.5-2.97,20.03-5.3,3.45-1.23,6.81-2.67,9.84-4.78,1.37-.95,2.6-2.05,3.49-3.48,1.2-1.93,1.22-3.86.07-5.82-.7-1.18-1.65-2.14-2.71-3-1.53-1.23-3.21-2.22-4.98-3.07-3.03-1.45-6.17-2.63-9.38-3.61-11.39-3.5-23.09-5.45-34.91-6.81-.45-.69-.77-1.44-1.01-2.23,2.02-.16,4,.21,5.99.41,7.44.73,14.87,1.63,22.23,2.93,9.78,1.73,19.52,3.68,28.85,7.21,2.87,1.08,5.64,2.36,8.29,3.9,1.7.98,3.28,2.14,4.6,3.61,2.74,3.05,2.77,6.35.08,9.45-1.1,1.26-2.43,2.25-3.82,3.15-4.68,3.01-9.83,4.97-15.13,6.55-6.3,1.87-12.7,3.34-19.17,4.48-5.78,1.02-11.58,1.88-17.41,2.62-8.57,1.09-17.18,1.75-25.79,2.28-6.86.42-13.74.68-20.62.75-8.44.09-16.87.07-25.3-.19-6.93-.21-13.85-.54-20.75-1.12-6.3-.52-12.59-1.18-18.86-1.98-6.42-.82-12.82-1.77-19.15-3.1-8.1-1.7-16.14-3.65-23.78-6.91-2.54-1.09-4.99-2.35-7.24-3.97-.77-.56-1.54-1.12-2.15-1.85-.01-.1.06-.15.17-.08,4.67,3.05,9.85,4.92,15.16,6.46,7.47,2.18,15.1,3.69,22.79,4.88,4.61.71,9.24,1.33,13.88,1.83.82.49,1.76.36,2.63.45,5.73.57,11.47,1.07,17.23,1.34,2.2.11,4.4.22,6.61.32.5.02,1,.09,1.49-.09,5.87.36,11.74.48,17.62.45,7.98-.04,15.97-.05,23.94-.54,4.51-.27,9.03-.44,13.53-.81,1.49-.12,3.01-.08,4.46-.5Z"/>
    <path class="cls-1" d="M356.83,189.24c2.37-3.86,3.83-7.78,4.85-11.88.79-3.16,1.64-6.3,2.46-9.45,1.26-4.85,2.52-9.69,3.77-14.55.72-2.79,1.14-5.6.23-8.36.06-.13.07-.18.1-.22.03-.03.08-.07.12-.07,7.63-.02,15.26-.04,22.89-.06.19,0,.38.06.7.11-.56,2.18-1.09,4.3-1.64,6.42-2.54,9.79-5.1,19.58-7.62,29.38-.67,2.59-1.06,5.22-.38,7.88.15.61,0,.85-.64.8-.3-.02-.6,0-.9,0-7.38,0-14.76,0-22.15,0h-1.81Z"/>
    <path class="cls-1" d="M371.25,140.25c.36-1.41.73-2.86,1.1-4.29.56-2.13,1.16-4.25,1.66-6.39.19-.8.54-1.03,1.32-1,1.75.05,3.51.02,5.27.02,4.66,0,9.33,0,13.99,0,.49,0,.99-.07,1.55.12-.92,3.66-1.85,7.29-2.75,10.93-.16.66-.51.86-1.17.84-1.65-.04-3.31-.01-4.97-.01-4.82,0-9.63,0-14.45,0-.48,0-1,.15-1.56-.21Z"/>
    <path class="cls-1" d="M291.57,179.45c.15-.14-.1-.15.08-.07.07.03,0,.11-.1.04,0,0,.02.03.02.03Z"/>
    <path class="cls-1" d="M242.44,179.45c.15-.14-.1-.15.08-.07.07.03,0,.11-.1.04,0,0,.02.03.02.03Z"/>
    <path class="cls-2" d="M99.07,81.83c7.28-.17,14.55-.14,21.83,0,.3.45.51.95.64,1.47-7.63-.32-15.27-.43-22.91-.54.03-.37.25-.64.44-.93Z"/>
  </g>
</svg>