<?xml version="1.0" encoding="UTF-8"?>
<svg id="Layer_2" xmlns="http://www.w3.org/2000/svg" viewBox="0 0 221.19 190.34">
  <defs>
    <style>
      .cls-1 {
        fill: #c42428;
      }

      .cls-2 {
        fill: #293e79;
      }
    </style>
  </defs>
  <g id="Layer_1-2" data-name="Layer_1">
    <path class="cls-1" d="M110.42,0c-.15.45.2.76.36,1.1,12.53,26.94,25.08,53.88,37.62,80.82.23.5.5.98.74,1.47.23.79.56,1.53,1.01,2.23.15.37.28.75.45,1.11,4.55,9.73,9.1,19.47,13.67,29.19.91,1.94,1.7,3.94,2.8,5.79-.55.41-1.22.41-1.85.52-8.04,1.38-16.13,2.43-24.26,3.08-.48.04-.97.32-1.46,0-.16-.42-.31-.85-.49-1.26-3.74-8.76-7.47-17.51-11.22-26.26-2.07-4.84-4.17-9.66-6.25-14.49-.13-.53-.34-1.02-.64-1.47-.09-.29-.16-.58-.28-.85-3.42-8.06-6.84-16.11-10.27-24.16-.09-.2-.15-.45-.46-.53-.22.5-.45,1-.67,1.5-1.98,4.65-3.96,9.29-5.93,13.95-1.42,3.36-2.82,6.74-4.22,10.1-.19.29-.41.56-.44.93-.18.35-.39.69-.55,1.06-4.96,11.66-9.92,23.32-14.86,34.99-1.11,2.62-2.35,5.2-3.27,7.9-.49.18-.99.11-1.49.09-2.2-.1-4.4-.21-6.61-.32-5.76-.28-11.5-.78-17.23-1.34-.87-.09-1.81.04-2.63-.45,2.58-5.48,5.17-10.96,7.73-16.45C76.32,72.66,92.91,37.07,109.5,1.48c.23-.48.59-.92.62-1.48h.3Z"/>
    <path class="cls-1" d="M198.79,190.12c-.51.31-.97.18-1.4.18-9.54,0-19.08-.02-28.62.04-1.15,0-1.62-.4-2.05-1.41-7.56-17.79-15.16-35.56-22.75-53.34-.21-.49-.54-.96-.5-1.66,2.13-.18,4.28-.35,6.42-.54,6.05-.52,12.08-1.15,18.1-1.99.55-.08,1.1-.12,1.64-.2q1.65-.24,2.39,1.32c8.67,18.61,17.34,37.23,26.01,55.85.27.58.51,1.17.76,1.75Z"/>
    <path class="cls-1" d="M76.55,134.05c.05.62-.29,1.08-.5,1.57-7.56,17.79-15.14,35.57-22.69,53.36-.39.92-.81,1.37-1.93,1.36-9.54-.06-19.07-.03-28.61-.03-.4,0-.79,0-1.18,0-.09-.58.22-.94.41-1.33,8.76-18.84,17.53-37.69,26.3-56.53.61-1.3.61-1.29,2.02-1.1,6.26.87,12.54,1.54,18.84,2.06,2.45.2,4.89.42,7.35.64Z"/>
    <path class="cls-2" d="M139.51,125.31c.49.31.98.03,1.46,0,8.13-.66,16.22-1.7,24.26-3.08.63-.11,1.3-.11,1.85-.52.55-.07,1.1-.11,1.64-.22,6.78-1.35,13.5-2.97,20.03-5.3,3.45-1.23,6.81-2.67,9.84-4.78,1.37-.95,2.6-2.05,3.49-3.48,1.2-1.93,1.22-3.86.07-5.82-.7-1.18-1.65-2.14-2.71-3-1.53-1.23-3.21-2.22-4.98-3.07-3.03-1.45-6.17-2.63-9.38-3.61-11.39-3.5-23.09-5.45-34.91-6.81-.45-.69-.77-1.44-1.01-2.23,2.02-.16,4,.21,5.99.41,7.44.73,14.87,1.63,22.23,2.93,9.78,1.73,19.52,3.68,28.85,7.21,2.87,1.08,5.64,2.36,8.29,3.9,1.7.98,3.28,2.14,4.6,3.61,2.74,3.05,2.77,6.35.08,9.45-1.1,1.26-2.43,2.25-3.82,3.15-4.68,3.01-9.83,4.97-15.13,6.55-6.3,1.87-12.7,3.34-19.17,4.48-5.78,1.02-11.58,1.88-17.41,2.62-8.57,1.09-17.18,1.75-25.79,2.28-6.86.42-13.74.68-20.62.75-8.44.09-16.87.07-25.3-.19-6.93-.21-13.85-.54-20.75-1.12-6.3-.52-12.59-1.18-18.86-1.98-6.42-.82-12.82-1.77-19.15-3.1-8.1-1.7-16.14-3.65-23.78-6.91-2.54-1.09-4.99-2.35-7.24-3.97-.77-.56-1.54-1.12-2.15-1.85-.01-.1.06-.15.17-.08,4.67,3.05,9.85,4.92,15.16,6.46,7.47,2.18,15.1,3.69,22.79,4.88,4.61.71,9.24,1.33,13.88,1.83.82.49,1.76.36,2.63.45,5.73.57,11.47,1.07,17.23,1.34,2.2.11,4.4.22,6.61.32.5.02,1,.09,1.49-.09,5.87.36,11.74.48,17.62.45,7.98-.04,15.97-.05,23.94-.54,4.51-.27,9.03-.44,13.53-.81,1.49-.12,3.01-.08,4.46-.5Z"/>
    <path class="cls-2" d="M99.07,81.83c7.28-.17,14.55-.14,21.83,0,.3.45.51.95.64,1.47-7.63-.32-15.27-.43-22.91-.54.03-.37.25-.64.44-.93Z"/>
  </g>
</svg>